<?xml version="1.0" encoding="UTF-8"?>
<svg width="67px" height="17px" viewBox="0 0 67 17" version="1.1" xmlns="http://www.w3.org/2000/svg" xmlns:xlink="http://www.w3.org/1999/xlink">
    <!-- Generator: Sketch 42 (36781) - http://www.bohemiancoding.com/sketch -->
    <title>Logo white</title>
    <desc>Created with Sketch.</desc>
    <defs></defs>
    <g id="Symbols" stroke="none" stroke-width="1" fill="none" fill-rule="evenodd" opacity="0.5">
        <g id="Footer" transform="translate(-61.000000, -133.000000)" fill="#FFFFFF">
            <g id="Logo-white">
                <g transform="translate(61.000000, 133.000000)">
                    <g id="Logo">
                        <g id="Logo-C---White" transform="translate(0.000000, 0.723404)">
                            <g id="Logo-C">
                                <path d="M8.96940571,3.48088889 C6.40283429,3.48088889 4.31466286,5.47982222 4.31466286,7.93706667 C4.31466286,10.3939556 6.40283429,12.3925333 8.96940571,12.3925333 C9.59117714,12.3925333 10.1966057,12.2645333 10.7600629,12.0376889 C10.5984914,11.888 10.4818629,11.6956444 10.4257771,11.4801778 C9.96557714,11.6547556 9.47269143,11.7475556 8.96940571,11.7475556 C6.77463429,11.7475556 4.98843429,10.0380444 4.98843429,7.93706667 C4.98843429,5.83573333 6.77463429,4.12586667 8.96940571,4.12586667 C9.46637714,4.12586667 9.95332,4.21582222 10.4090629,4.38613333 C10.4510343,4.16888889 10.5580057,3.97404444 10.7080629,3.81688889 C10.15872,3.6032 9.57223429,3.48088889 8.96940571,3.48088889" id="Fill-102"></path>
                                <path d="M10.81678,0.317546667 C10.2132086,0.183146667 9.59663714,0.107057778 8.96929429,0.107057778 C5.61232286,0.107057778 2.66875143,2.03914667 1.42000857,4.92839111 C1.65660857,4.94190222 1.87463714,5.01728 2.05552286,5.14243556 C3.20955143,2.50954667 5.90203714,0.752391111 8.96929429,0.752391111 C9.46515143,0.752391111 9.95358,0.803591111 10.4342086,0.894968889 C10.4992086,0.666346667 10.6340371,0.467235556 10.81678,0.317546667" id="Fill-103"></path>
                                <path d="M12.1969343,3.58663111 L12.1969343,2.21312 C12.0208771,2.30769778 11.8206771,2.36636444 11.6048771,2.36636444 C11.57702,2.36636444 11.5506486,2.36032 11.5231629,2.35818667 L11.5231629,3.44120889 C11.5506486,3.43943111 11.57702,3.43338667 11.6048771,3.43338667 C11.8206771,3.43338667 12.0208771,3.49169778 12.1969343,3.58663111" id="Fill-104"></path>
                                <path d="M11.5229771,12.3586844 L11.5229771,13.4413511 C11.5504629,13.4395733 11.5772057,13.4335289 11.6050629,13.4335289 C11.8208629,13.4335289 12.0210629,13.4921956 12.1967486,13.5867733 L12.1967486,12.2132622 C12.0210629,12.30784 11.8208629,12.3665067 11.6050629,12.3665067 C11.5772057,12.3665067 11.5504629,12.3604622 11.5229771,12.3586844" id="Fill-105"></path>
                                <path d="M10.4562343,14.9741156 C9.96892,15.0686933 9.47269143,15.1216711 8.96940571,15.1216711 C5.88023429,15.1216711 3.17326286,13.33856 2.03297714,10.6750933 C1.84949143,10.7952711 1.62886286,10.8656711 1.39189143,10.8738489 C2.62243429,13.8022044 5.58532,15.7666489 8.96940571,15.7666489 C9.62126286,15.7666489 10.2623486,15.6852267 10.88932,15.5394489 C10.68912,15.39936 10.5379486,15.2030933 10.4562343,14.9741156" id="Fill-106"></path>
                                <path d="M12.1497629,14.6001778 C12.1497629,14.8878222 11.9053629,15.1217778 11.6048771,15.1217778 C11.3047629,15.1217778 11.0599914,14.8878222 11.0599914,14.6001778 C11.0599914,14.3125333 11.3047629,14.0785778 11.6048771,14.0785778 C11.9053629,14.0785778 12.1497629,14.3125333 12.1497629,14.6001778 M11.5231629,13.4414222 C10.8898771,13.4823111 10.38622,13.9836444 10.38622,14.6001778 C10.38622,14.7317333 10.4140771,14.8561778 10.4560486,14.9742222 C10.5377629,15.2028444 10.6889343,15.3994667 10.8891343,15.5395556 C11.0904486,15.6807111 11.3367057,15.7667556 11.6048771,15.7667556 C12.2771629,15.7667556 12.8235343,15.2433778 12.8235343,14.6001778 C12.8235343,14.1635556 12.5691057,13.7866667 12.1969343,13.5864889 C12.0208771,13.4919111 11.8206771,13.4336 11.6048771,13.4336 C11.57702,13.4336 11.5506486,13.4396444 11.5231629,13.4414222" id="Fill-107"></path>
                                <path d="M11.6049514,10.6782933 C11.9054371,10.6782933 12.1498371,10.9122489 12.1498371,11.1998933 C12.1498371,11.4875378 11.9054371,11.7214933 11.6049514,11.7214933 C11.3044657,11.7214933 11.0600657,11.4875378 11.0600657,11.1998933 C11.0600657,10.9122489 11.3044657,10.6782933 11.6049514,10.6782933 M10.7603229,12.0375822 C10.9608943,12.2231822 11.22758,12.3394489 11.5228657,12.3586489 C11.5507229,12.3604267 11.5770943,12.3668267 11.6049514,12.3668267 C11.8207514,12.3668267 12.0209514,12.3078044 12.1970086,12.2132267 C12.56918,12.0134044 12.8236086,11.63616 12.8236086,11.1998933 C12.8236086,10.5566933 12.2772371,10.0333156 11.6049514,10.0333156 C10.9330371,10.0333156 10.3862943,10.5566933 10.3862943,11.1998933 C10.3862943,11.29696 10.4026371,11.38976 10.4256657,11.4800711 C10.4821229,11.6958933 10.59838,11.8878933 10.7603229,12.0375822" id="Fill-108"></path>
                                <path d="M11.06014,4.60017778 C11.06014,4.31253333 11.30454,4.07822222 11.6050257,4.07822222 C11.90514,4.07822222 12.1499114,4.31253333 12.1499114,4.60017778 C12.1499114,4.88782222 11.90514,5.12142222 11.6050257,5.12142222 C11.30454,5.12142222 11.06014,4.88782222 11.06014,4.60017778 M11.6050257,5.7664 C12.27694,5.7664 12.8236829,5.24337778 12.8236829,4.60017778 C12.8236829,4.1632 12.5688829,3.78631111 12.1970829,3.58648889 C12.0210257,3.49191111 11.8208257,3.43324444 11.6050257,3.43324444 C11.5771686,3.43324444 11.5504257,3.43964444 11.52294,3.44142222 C11.20054,3.46204444 10.9134257,3.60142222 10.7080257,3.81688889 C10.5579686,3.97404444 10.4509971,4.16888889 10.4090257,4.38613333 C10.3952829,4.45582222 10.3863686,4.52693333 10.3863686,4.60017778 C10.3863686,5.24337778 10.9331114,5.7664 11.6050257,5.7664" id="Fill-109"></path>
                                <path d="M11.06014,1.19982222 C11.06014,0.912177778 11.30454,0.678222222 11.6050257,0.678222222 C11.90514,0.678222222 12.1499114,0.912177778 12.1499114,1.19982222 C12.1499114,1.48746667 11.90514,1.72142222 11.6050257,1.72142222 C11.30454,1.72142222 11.06014,1.48746667 11.06014,1.19982222 M12.1970829,2.21315556 C12.5688829,2.01333333 12.8236829,1.63644444 12.8236829,1.19982222 C12.8236829,0.556622222 12.27694,0.0328888889 11.6050257,0.0328888889 C11.3026829,0.0328888889 11.0300543,0.142755556 10.8168543,0.317688889 C10.6341114,0.467377778 10.4989114,0.666488889 10.4339114,0.895111111 C10.4060543,0.992533333 10.3863686,1.09351111 10.3863686,1.19982222 C10.3863686,1.816 10.8900257,2.31733333 11.52294,2.35822222 C11.5504257,2.36035556 11.5771686,2.3664 11.6050257,2.3664 C11.8208257,2.3664 12.0210257,2.30773333 12.1970829,2.21315556" id="Fill-110"></path>
                                <path d="M1.89231714,6.088 C1.89231714,6.37564444 1.64828857,6.6096 1.34743143,6.6096 C1.04731714,6.6096 0.802545714,6.37564444 0.802545714,6.088 C0.802545714,5.80035556 1.04731714,5.5664 1.34743143,5.5664 C1.64828857,5.5664 1.89231714,5.80035556 1.89231714,6.088 M1.34743143,4.92142222 C0.675517143,4.92142222 0.128774286,5.4448 0.128774286,6.088 C0.128774286,6.7312 0.675517143,7.25457778 1.34743143,7.25457778 C2.01971714,7.25457778 2.56608857,6.7312 2.56608857,6.088 C2.56608857,5.69795556 2.36366,5.35413333 2.05537429,5.14222222 C1.87448857,5.01742222 1.65646,4.94204444 1.42023143,4.92853333 C1.39571714,4.92675556 1.37268857,4.92142222 1.34743143,4.92142222" id="Fill-111"></path>
                                <path d="M0.802694286,9.71178667 C0.802694286,9.42414222 1.04709429,9.19018667 1.34758,9.19018667 C1.64806571,9.19018667 1.89246571,9.42414222 1.89246571,9.71178667 C1.89246571,9.99943111 1.64806571,10.2330311 1.34758,10.2330311 C1.04709429,10.2330311 0.802694286,9.99943111 0.802694286,9.71178667 M2.56623714,9.71178667 C2.56623714,9.06858667 2.01949429,8.54520889 1.34758,8.54520889 C0.675294286,8.54520889 0.128922857,9.06858667 0.128922857,9.71178667 C0.128922857,10.3549867 0.675294286,10.8780089 1.34758,10.8780089 C1.36280857,10.8780089 1.37692286,10.8744533 1.39178,10.8740978 C1.62912286,10.86592 1.84938,10.7951644 2.03323714,10.6749867 C2.35489429,10.4648533 2.56623714,10.1117867 2.56623714,9.71178667" id="Fill-112"></path>
                            </g>
                        </g>
                        <g id="Logo-Text" transform="translate(17.021622, 0.000000)">
                            <path d="M5.15903622,3.03880426 L4.53937676,3.76546383 C4.17576595,3.39218723 3.67417135,3.16648511 3.04509568,3.17625106 C2.14077676,3.17625106 1.49178216,3.85371915 1.49178216,4.84550638 C1.49178216,5.83693191 2.14077676,6.5144 3.04509568,6.5144 C3.70386865,6.5144 4.23479838,6.29846383 4.58863081,5.8861234 L5.21770649,6.5144 C4.74580919,7.13291064 3.98925243,7.48665532 2.99584162,7.48665532 C1.44252811,7.48665532 0.361111892,6.41637872 0.361111892,4.84550638 C0.361111892,3.26450638 1.44252811,2.18446383 2.99584162,2.18446383 C3.93999838,2.18446383 4.67699838,2.48865532 5.15903622,3.03880426" id="Fill-113"></path>
                            <path d="M6.63386919,4.8453617 C6.63386919,5.85668085 7.29228,6.54391489 8.23643676,6.54391489 C9.17045297,6.54391489 9.82886378,5.85668085 9.82886378,4.8453617 C9.82886378,3.84380851 9.17045297,3.15657447 8.23643676,3.15657447 C7.29228,3.15657447 6.63386919,3.84380851 6.63386919,4.8453617 M10.9591719,4.83559574 C10.9591719,6.40646809 9.84842054,7.48651064 8.23643676,7.48651064 C6.61395027,7.48651064 5.50319892,6.40646809 5.50319892,4.83559574 C5.50319892,3.25459574 6.61395027,2.18468085 8.23643676,2.18468085 C9.84842054,2.18468085 10.9591719,3.25459574 10.9591719,4.83559574" id="Fill-114"></path>
                            <path d="M16.9466541,4.19737234 L16.9466541,7.44726596 L15.8163459,7.44726596 L15.8163459,4.51169149 C15.8163459,3.72607447 15.3444486,3.24501064 14.5578324,3.24501064 C13.6929892,3.2547766 13.1519189,3.85375532 13.0736919,4.66867021 L13.0736919,7.44726596 L11.9430216,7.44726596 L11.9430216,2.22356383 L13.0736919,2.22356383 L13.0736919,3.22511702 C13.4470811,2.49881915 14.1156324,2.1845 15.0000324,2.1845 C16.2194324,2.1845 16.9466541,2.9502234 16.9466541,4.19737234" id="Fill-115"></path>
                            <path d="M23.2685568,4.19737234 L23.2685568,7.44726596 L22.1378865,7.44726596 L22.1378865,4.51169149 C22.1378865,3.72607447 21.6659892,3.24501064 20.879373,3.24501064 C20.0145297,3.2547766 19.4734595,3.85375532 19.3952324,4.66867021 L19.3952324,7.44726596 L18.2645622,7.44726596 L18.2645622,2.22356383 L19.3952324,2.22356383 L19.3952324,3.22511702 C19.7686216,2.49881915 20.437173,2.1845 21.3219351,2.1845 C22.540973,2.1845 23.2685568,2.9502234 23.2685568,4.19737234" id="Fill-116"></path>
                            <path d="M28.2037405,4.44267872 C28.164627,3.59846596 27.604,3.08774255 26.748573,3.08774255 C25.9228432,3.08774255 25.3430216,3.60823191 25.2151784,4.44267872 L28.2037405,4.44267872 Z M29.1870108,5.26772128 L25.2347351,5.26772128 C25.4118324,6.07250851 26.0311297,6.57346596 26.8568595,6.57346596 C27.4269027,6.57346596 27.9484162,6.35716809 28.3319459,5.96472128 L28.9313243,6.60276383 C28.4203135,7.16267872 27.6728108,7.48676383 26.7684919,7.48676383 C25.1561459,7.48676383 24.0942865,6.41648723 24.0942865,4.84525319 C24.0942865,3.26461489 25.1858432,2.1943383 26.7387946,2.18457234 C28.5774919,2.18457234 29.3246324,3.38216809 29.1870108,5.26772128 L29.1870108,5.26772128 Z" id="Fill-117"></path>
                            <path d="M34.4764978,3.03880426 L33.8568384,3.76546383 C33.4932276,3.39218723 32.991633,3.16648511 32.3625573,3.17625106 C31.4582384,3.17625106 30.8092438,3.85371915 30.8092438,4.84550638 C30.8092438,5.83693191 31.4582384,6.5144 32.3625573,6.5144 C33.0209681,6.5144 33.55226,6.29846383 33.9060924,5.8861234 L34.5351681,6.5144 C34.0632708,7.13291064 33.3067141,7.48665532 32.3133032,7.48665532 C30.7599897,7.48665532 29.6785735,6.41637872 29.6785735,4.84550638 C29.6785735,3.26450638 30.7599897,2.18446383 32.3133032,2.18446383 C33.25746,2.18446383 33.99446,2.48865532 34.4764978,3.03880426" id="Fill-118"></path>
                            <path d="M38.477593,7.11341489 C38.0647281,7.35901064 37.6323065,7.49645745 37.1897443,7.49645745 C36.4031281,7.49645745 35.7247984,7.04469149 35.7247984,5.97441489 L35.7247984,3.26454255 L34.9877984,3.26454255 L34.9877984,2.41996809 L35.7247984,2.41996809 L35.7247984,0.986542553 L36.8456903,0.986542553 L36.8456903,2.41996809 L38.3892254,2.41996809 L38.3892254,3.26454255 L36.8456903,3.26454255 L36.8456903,5.76824468 C36.8456903,6.30826596 37.0521227,6.47501064 37.4059551,6.47501064 C37.6420849,6.47501064 37.887993,6.39688298 38.1925714,6.24930851 L38.477593,7.11341489 Z" id="Fill-119"></path>
                            <path d="M42.8822454,4.44267872 C42.8431319,3.59846596 42.2825049,3.08774255 41.4270778,3.08774255 C40.6013481,3.08774255 40.0215265,3.60823191 39.8936832,4.44267872 L42.8822454,4.44267872 Z M43.8655157,5.26772128 L39.91324,5.26772128 C40.0903373,6.07250851 40.7096346,6.57346596 41.5353643,6.57346596 C42.1054076,6.57346596 42.6265589,6.35716809 43.0100886,5.96472128 L43.6098292,6.60276383 C43.0988184,7.16267872 42.3513157,7.48676383 41.4469968,7.48676383 C39.8346508,7.48676383 38.7727914,6.41648723 38.7727914,4.84525319 C38.7727914,3.26461489 39.8639859,2.1943383 41.4172995,2.18457234 C43.2556346,2.18457234 44.0031373,3.38216809 43.8655157,5.26772128 L43.8655157,5.26772128 Z" id="Fill-120"></path>
                            <path d="M48.7026622,4.85523617 C48.7026622,3.84391702 48.0438892,3.13715106 47.0997324,3.13715106 C46.1563,3.13715106 45.497527,3.85368298 45.4877486,4.85523617 C45.497527,5.8466617 46.1461595,6.55378936 47.0997324,6.55378936 C48.0438892,6.55378936 48.7026622,5.8466617 48.7026622,4.85523617 L48.7026622,4.85523617 Z M49.8329703,7.44719362 L48.7026622,7.44719362 L48.7026622,6.55378936 C48.3289108,7.16253404 47.699473,7.49638511 46.864327,7.49638511 C45.3602676,7.49638511 44.3570784,6.4065766 44.3570784,4.81581064 C44.3570784,3.2449383 45.3696838,2.1746617 46.8444081,2.1746617 C47.6900568,2.1746617 48.3191324,2.51827872 48.7026622,3.1270234 L48.7026622,0.161789362 L49.8329703,0.161789362 L49.8329703,7.44719362 Z" id="Fill-121"></path>
                            <path d="M5.15903622,11.2212298 L4.53937676,11.9478894 C4.17576595,11.5749745 3.67417135,11.3489106 3.04509568,11.3586766 C2.14077676,11.3586766 1.49178216,12.0361447 1.49178216,13.0279319 C1.49178216,14.0197191 2.14077676,14.6968255 3.04509568,14.6968255 C3.70386865,14.6968255 4.23479838,14.4808894 4.58863081,14.0685489 L5.21770649,14.6968255 C4.74580919,15.3156979 3.98925243,15.6690809 2.99584162,15.6690809 C1.44252811,15.6690809 0.361111892,14.5988043 0.361111892,13.0279319 C0.361111892,11.4472936 1.44252811,10.3668894 2.99584162,10.3668894 C3.93999838,10.3668894 4.67699838,10.6714426 5.15903622,11.2212298" id="Fill-122"></path>
                            <path d="M9.11134811,13.7937638 L9.11134811,13.3123383 L7.69565622,13.3123383 C6.95829405,13.3123383 6.61387784,13.5087426 6.61387784,14.0097 C6.61387784,14.4809979 6.99740757,14.7855511 7.62648324,14.7855511 C8.43301838,14.7855511 9.05231568,14.363083 9.11134811,13.7937638 L9.11134811,13.7937638 Z M9.12112649,14.9917213 C8.74737514,15.4528915 8.14763459,15.6789553 7.39071568,15.6789553 C6.26004541,15.6789553 5.55238054,14.9815936 5.55238054,14.0588915 C5.55238054,13.1065298 6.26982378,12.4974234 7.5283373,12.4880191 L9.11134811,12.4880191 L9.11134811,12.3306787 C9.11134811,11.6727426 8.68870486,11.279934 7.86297514,11.279934 C7.36138054,11.279934 6.84022919,11.4568064 6.31907784,11.8105511 L5.85732108,11.024934 C6.5845427,10.5927 7.11547243,10.3669979 8.10852108,10.3669979 C9.45540216,10.3669979 10.2123211,11.0542319 10.2220995,12.2033596 L10.23224,15.6297638 L9.12112649,15.6297638 L9.12112649,14.9917213 Z" id="Fill-123"></path>
                            <path d="M12.679913,11.4471128 C13.0341076,10.7399851 13.6631832,10.3670702 14.488913,10.3670702 L14.488913,11.4471128 C13.4371941,11.3881553 12.7686427,12.006666 12.679913,12.9004319 L12.679913,15.6298362 L11.5496049,15.6298362 L11.5496049,10.4064957 L12.679913,10.4064957 L12.679913,11.4471128 Z" id="Fill-124"></path>
                            <path d="M18.6181049,10.8874511 L18.20524,11.7218979 C17.7431211,11.4372383 17.1629373,11.2607277 16.7011805,11.2607277 C16.2586184,11.2607277 15.9344832,11.4075787 15.9344832,11.7808553 C15.9344832,12.742983 18.716613,12.2224936 18.7064724,14.1178128 C18.7064724,15.1880894 17.7528995,15.6691532 16.7011805,15.6691532 C15.9344832,15.6691532 15.1181697,15.4137915 14.5970184,14.9424936 L15.000467,14.1373447 C15.4528076,14.5399191 16.1803914,14.7855149 16.7504346,14.7855149 C17.2321103,14.7855149 17.6054995,14.6184085 17.6054995,14.2259617 C17.6054995,13.1556851 14.853067,13.7543021 14.8628454,11.8691106 C14.8628454,10.8089617 15.7870832,10.3571957 16.7895481,10.3571957 C17.4483211,10.3571957 18.1462076,10.5536 18.6181049,10.8874511" id="Fill-125"></path>
                        </g>
                    </g>
                </g>
            </g>
        </g>
    </g>
</svg>